<svg width="32" height="33" viewBox="0 0 32 33" fill="none" xmlns="http://www.w3.org/2000/svg">
<g id="business-solutions" clip-path="url(#clip0_131_928)">
<path id="Vector" d="M25.8996 15.65C24.8996 16.3 23.7496 16.55 22.5996 16.35C21.4496 16.15 20.4496 15.45 19.7496 14.5C19.0996 13.5 18.8496 12.35 19.0496 11.2C19.2496 10.05 19.9496 9.05001 20.8996 8.35001C21.8496 7.70001 22.9996 7.45001 24.0996 7.65001L19.8496 1.30001L11.9996 6.65001C11.8496 6.75001 11.6496 6.75001 11.5496 6.60001C11.3996 6.50001 11.3996 6.30001 11.4496 6.15001C11.9996 5.00001 11.8996 3.60001 11.1996 2.50001C10.6496 1.70001 9.79963 1.15001 8.84963 0.950007C7.89963 0.750007 6.89963 0.950007 6.09963 1.50001C5.29963 2.05001 4.74963 2.90001 4.54963 3.85001C4.34963 4.80001 4.54963 5.80001 5.09963 6.60001C5.84963 7.70001 7.09963 8.30001 8.39963 8.20001C8.54963 8.20001 8.74963 8.30001 8.79963 8.45001C8.84963 8.60001 8.79963 8.80001 8.64963 8.90001L0.84963 14.25L5.84963 21.6C5.94963 21.75 5.94963 21.95 5.79963 22.05C5.69963 22.2 5.49963 22.2 5.34963 22.15C4.14963 21.5 2.69963 21.6 1.59963 22.35C-0.0503703 23.5 -0.50037 25.8 0.64963 27.45C1.79963 29.1 4.04963 29.55 5.74963 28.4C6.84963 27.65 7.49963 26.35 7.34963 25C7.34963 24.8 7.44963 24.65 7.59963 24.6C7.64963 24.6 7.69963 24.6 7.74963 24.6C7.84963 24.6 7.99963 24.65 8.04963 24.75L13.0496 32.1L19.7996 27.5C18.7496 27.25 17.7996 26.6 17.1496 25.7C15.7996 23.7 16.2996 20.9 18.2996 19.55C20.2996 18.2 23.0996 18.7 24.4496 20.7C25.0996 21.65 25.3496 22.75 25.1496 23.8L31.9996 19.2L27.7496 12.9C27.4996 14 26.8496 15 25.8996 15.65Z" fill="black"/>
</g>
<defs>
<clipPath id="clip0_131_928">
<rect width="32" height="32" fill="white" transform="translate(0 0.5)"/>
</clipPath>
</defs>
</svg>
