<svg width="100" height="100" viewBox="0 0 100 100" fill="none" xmlns="http://www.w3.org/2000/svg">
<g id="fluent:chat-video-24-filled">
<g id="Group">
<circle id="Ellipse 48" cx="49.5" cy="49.5" r="36.5" fill="white"/>
<path id="Vector" d="M91.6673 49.9999C91.6673 26.9874 73.0132 8.33325 50.0007 8.33325C26.9882 8.33325 8.33398 26.9874 8.33398 49.9999C8.33398 56.8457 9.98815 63.4583 13.1048 69.3749L8.45482 87.2499C8.30016 87.8469 8.30407 88.4739 8.46616 89.069C8.62825 89.664 8.9429 90.2064 9.37897 90.6424C9.81504 91.0785 10.3574 91.3932 10.9524 91.5552C11.5475 91.7173 12.1745 91.7212 12.7715 91.5666L30.6465 86.9124C36.6159 90.0457 43.2589 91.6775 50.0007 91.6666C73.0132 91.6666 91.6673 73.0124 91.6673 49.9999ZM50.0007 33.3333C52.2108 33.3333 54.3304 34.2112 55.8932 35.774C57.456 37.3368 58.334 39.4564 58.334 41.6666V58.3333C58.334 60.5434 57.456 62.663 55.8932 64.2258C54.3304 65.7886 52.2108 66.6666 50.0007 66.6666H37.5007C35.2905 66.6666 33.1709 65.7886 31.6081 64.2258C30.0453 62.663 29.1673 60.5434 29.1673 58.3333V41.6666C29.1673 39.4564 30.0453 37.3368 31.6081 35.774C33.1709 34.2112 35.2905 33.3333 37.5007 33.3333H50.0007ZM62.5007 54.8416V45.1583L69.7257 38.3166C70.1692 37.8961 70.7264 37.6149 71.3282 37.5078C71.9299 37.4007 72.5499 37.4724 73.1113 37.7141C73.6727 37.9558 74.1509 38.3568 74.4868 38.8675C74.8226 39.3782 75.0012 39.9762 75.0007 40.5874V59.4124C75.0012 60.0236 74.8226 60.6216 74.4868 61.1323C74.1509 61.643 73.6727 62.0441 73.1113 62.2857C72.5499 62.5274 71.9299 62.5992 71.3282 62.4921C70.7264 62.385 70.1692 62.1038 69.7257 61.6833L62.5007 54.8416Z" fill="url(#paint0_linear_131_867)"/>
</g>
</g>
<defs>
<linearGradient id="paint0_linear_131_867" x1="50.0007" y1="8.33325" x2="50.0007" y2="91.6798" gradientUnits="userSpaceOnUse">
<stop stop-color="#5BFFFF"/>
<stop offset="1" stop-color="#00FF00"/>
</linearGradient>
</defs>
</svg>
