<svg width="147" height="100" viewBox="0 0 147 100" fill="none" xmlns="http://www.w3.org/2000/svg">
<g id="Frame 48095481">
<path id="Vector" d="M26.168 14.0226V33.4813C26.168 40.8138 31.351 45.6698 38.1734 45.6698C39.7269 45.6931 41.2692 45.4027 42.7078 44.8159C44.1464 44.2291 45.4517 43.3579 46.5457 42.2547V45.148H51.2653V14.0187H46.5068V33.2321C46.5068 38.1581 43.1189 41.4875 38.7381 41.4953C34.3027 41.4875 30.9616 38.2476 30.9616 33.2321V14.0187L26.168 14.0226ZM54.8362 14.0226V45.148H59.365V42.2975C60.448 43.3804 61.7339 44.2391 63.1491 44.8245C64.5644 45.4098 66.0812 45.7103 67.6127 45.7087C69.1944 45.7493 70.7682 45.4727 72.2413 44.8955C73.7144 44.3182 75.0571 43.4519 76.1901 42.3475C77.3232 41.2431 78.2236 39.9231 78.8385 38.4653C79.4533 37.0074 79.7701 35.4412 79.7701 33.859C79.7701 32.2768 79.4533 30.7106 78.8385 29.2528C78.2236 27.7949 77.3232 26.4749 76.1901 25.3705C75.0571 24.2662 73.7144 23.3998 72.2413 22.8226C70.7682 22.2453 69.1944 21.9688 67.6127 22.0093C66.0876 22.0083 64.5774 22.3092 63.1692 22.8946C61.761 23.4801 60.4826 24.3386 59.4078 25.4205V14.0226H54.8362ZM93.3331 22.0288C91.7828 22.0221 90.2465 22.3219 88.8123 22.9107C87.3782 23.4996 86.0746 24.3661 84.9764 25.4603C83.8782 26.5546 83.007 27.855 82.4129 29.287C81.8188 30.719 81.5135 32.2542 81.5145 33.8045C81.5145 40.5685 86.8611 45.6308 93.7926 45.6308C95.7175 45.6701 97.6243 45.2518 99.3561 44.4103C101.088 43.5688 102.595 42.3282 103.754 40.7905L100.444 38.3839C99.6898 39.4392 98.6902 40.295 97.5314 40.8771C96.3725 41.4593 95.0892 41.7503 93.7926 41.7251C91.9539 41.7479 90.1682 41.1099 88.7603 39.9271C87.3524 38.7443 86.4159 37.0954 86.1212 35.2804H104.879V33.8045C104.879 27.0522 99.9959 22.0288 93.337 22.0288H93.3331ZM117.332 22.2858C116.257 22.2764 115.198 22.5464 114.259 23.0693C113.32 23.5922 112.532 24.35 111.974 25.2687V22.4688H107.445V45.148H112.017V32.2508C112.017 28.7383 114.194 26.4719 117.184 26.4719H119.112V22.2936L117.332 22.2858ZM93.1773 25.9618C94.8565 25.939 96.4906 26.5055 97.7954 27.5627C99.1002 28.6199 99.9932 30.101 100.319 31.7484H86.2303C86.5497 30.1338 87.4141 28.6779 88.6787 27.6245C89.9434 26.5711 91.5315 25.9841 93.1773 25.9618ZM67.2466 25.9852C68.2801 25.9847 69.3036 26.1877 70.2586 26.5828C71.2136 26.9778 72.0815 27.5571 72.8127 28.2875C73.5438 29.0179 74.1239 29.8852 74.5199 30.8398C74.9159 31.7945 75.12 32.8177 75.1205 33.8512C75.121 34.8847 74.9179 35.9082 74.5229 36.8632C74.1279 37.8182 73.5486 38.6861 72.8182 39.4173C72.0877 40.1484 71.2204 40.7285 70.2658 41.1245C69.3112 41.5205 68.2879 41.7246 67.2544 41.7251C65.1809 41.7079 63.1985 40.8707 61.7404 39.3964C60.279 37.9243 59.4599 35.9334 59.4624 33.859C59.4589 31.7852 60.2765 29.7944 61.7365 28.3216C63.1924 26.8454 65.1734 26.0054 67.2466 25.9852ZM26.168 53.4385V84.4782H48.4499V79.155H32.1882V71.4836H48.0138V66.3629H32.1882V58.75H48.4499V53.4346L26.168 53.4385ZM82.8658 55.035V61.5966H78.3876V66.8068H82.8814V79.0459C82.8814 82.1339 85.1088 84.5794 89.1119 84.5794H95.5099L95.4865 79.3691H91.0434C89.6882 79.3691 88.8159 78.785 88.8159 77.5623V66.7835H95.4826V61.5966H88.8393V55.0311L82.8658 55.035ZM62.2388 60.9813C60.6378 60.977 59.0519 61.2909 57.5733 61.9048C56.0947 62.5186 54.7528 63.4202 53.6256 64.5572C52.4983 65.6941 51.6083 67.0437 51.0072 68.5276C50.406 70.0115 50.1058 71.6 50.1238 73.2009C50.1419 74.8018 50.4779 76.3831 51.1124 77.8531C51.7468 79.323 52.6671 80.6522 53.8197 81.7634C54.9722 82.8746 56.3341 83.7457 57.8262 84.3261C59.3184 84.9064 60.9109 85.1845 62.5114 85.1441C65.2206 85.1723 67.8549 84.2552 69.9608 82.5506V84.6223H75.8681V61.5966H69.992V63.6448C67.8861 61.9131 65.2417 60.971 62.5153 60.9813H62.2427H62.2388ZM108.076 61.0085C101.904 61.0085 97.562 63.5163 97.562 68.3528C97.562 71.7017 99.9491 73.8863 105.101 74.9533L110.74 76.2305C112.959 76.6589 113.551 77.2391 113.551 78.1386C113.551 79.5833 111.846 80.4867 109.163 80.4867C105.751 80.4867 103.796 79.7469 103.037 77.1846H97.0675C97.9242 81.9782 101.573 85.1674 108.941 85.1674H108.948C115.771 85.1674 119.626 81.9782 119.626 77.5623C119.626 74.4237 117.348 72.0794 112.582 71.0709L107.543 70.0584C104.618 69.5288 103.695 68.9914 103.695 67.9322C103.695 66.542 105.101 65.6931 107.706 65.6931C110.518 65.6931 112.582 66.4408 113.177 68.9914H119.089C118.754 64.2056 115.233 61.0085 108.08 61.0085H108.076ZM63.0332 65.8761C66.9663 65.9151 70.1166 69.1355 70.0698 73.0685C70.071 73.9979 69.8872 74.9182 69.5294 75.776C69.1715 76.6337 68.6467 77.4117 67.9853 78.0647C67.324 78.7177 66.5394 79.2326 65.6772 79.5796C64.815 79.9265 63.8924 80.0986 62.9631 80.0856C61.0794 80.0764 59.2764 79.3191 57.951 77.9805C56.6255 76.6419 55.8861 74.8316 55.8954 72.9478C55.9047 71.064 56.6619 69.2611 58.0005 67.9356C59.3391 66.6102 61.1495 65.8707 63.0332 65.88V65.8761Z" fill="#757B8A"/>
</g>
</svg>
