<svg width="148" height="100" viewBox="0 0 148 100" fill="none" xmlns="http://www.w3.org/2000/svg">
<g id="Frame 48095486">
<path id="Vector" d="M46.3673 30.7307L38.7785 32.3431L38.7435 57.3003C38.7435 61.9096 42.2137 64.8891 46.823 64.8891C49.3818 64.8891 51.2571 64.4159 52.2912 63.855V57.9312C51.2922 58.3343 46.3849 59.7714 46.3849 55.1796V44.1031H52.2912V37.4782H46.3849L46.3673 30.7307ZM61.9831 39.7742L61.5099 37.4782H54.7799V64.3282H62.5439V46.2588C64.3842 43.8402 67.4863 44.3134 68.4853 44.6289V37.4782C67.4337 37.1102 63.8058 36.4267 61.9831 39.7742ZM78.1597 27.1028L70.3431 28.7678V35.1122L78.1597 33.4472V27.1028ZM25.3185 45.3825C25.3185 44.1732 26.335 43.7 27.9649 43.6825C30.331 43.6825 33.3454 44.401 35.7115 45.6805V38.3545C33.2489 37.3938 30.6257 36.912 27.9825 36.9349C21.6731 36.9349 17.4668 40.2298 17.4668 45.733C17.4668 54.3559 29.2969 52.9538 29.2969 56.6693C29.2969 58.1065 28.0526 58.5797 26.3175 58.5797C23.7411 58.5797 20.4112 57.5106 17.7998 56.091V63.1014C20.6916 64.3458 23.6185 64.8715 26.3 64.8715C32.7671 64.8715 37.2187 62.1024 37.2187 56.4941C37.2187 47.2227 25.3185 48.8877 25.3185 45.3825ZM129.616 51.2187C129.616 43.2443 125.761 36.9525 118.365 36.9525C110.969 36.9525 106.464 43.2443 106.464 51.1661C106.464 60.5426 111.775 64.8715 119.346 64.8715C123.062 64.8715 125.848 64.0303 127.969 62.856V57.0023C125.848 58.0714 123.412 58.7199 120.327 58.7199C117.295 58.7199 114.632 57.6508 114.281 54.0054H129.511C129.546 53.6023 129.616 51.9723 129.616 51.2187ZM114.211 48.2743C114.211 44.7691 116.367 43.2969 118.312 43.2969C120.222 43.2969 122.255 44.7691 122.255 48.2743H114.211ZM94.4239 36.9525C91.3744 36.9525 89.4115 38.3896 88.3248 39.3886L87.9217 37.4607H81.069V73.3542L88.8506 71.7067L88.8681 62.9086C89.9898 63.7323 91.6548 64.8715 94.3713 64.8715C99.9446 64.8715 105.027 60.8055 105.027 50.9208C105.045 41.8773 99.8921 36.9525 94.4239 36.9525ZM92.5662 58.4219C90.7434 58.4219 89.6568 57.7559 88.9032 56.9497L88.8506 45.3825C89.6568 44.4887 90.7785 43.8402 92.5662 43.8402C95.4054 43.8402 97.3683 47.03 97.3683 51.096C97.3858 55.2848 95.458 58.4219 92.5662 58.4219ZM70.3606 64.3282H78.1772V37.4782H70.3606V64.3282Z" fill="#757B8A"/>
</g>
</svg>
