<svg width="148" height="100" viewBox="0 0 148 100" fill="none" xmlns="http://www.w3.org/2000/svg">
<g id="Frame 48095482">
<path id="Exclude" fill-rule="evenodd" clip-rule="evenodd" d="M47.1249 27.1028H37.9398V51.395C37.9398 54.5531 35.866 56.4286 32.5088 56.4286C29.153 56.4286 27.3749 53.9609 27.3749 51.2947V46.9516H18.4863V51.395C18.4863 55.9344 19.8684 64.0369 32.6075 64.0369C45.3452 64.0369 47.1249 55.3438 47.1249 51.1989V27.1028ZM103.614 72.2328V38.161H112.111V39.5431C112.111 41.3866 112.855 40.6264 113.454 39.908L113.457 39.9044C113.587 39.7484 115.484 37.47 119.713 37.47C123.965 37.47 130.58 40.4318 130.58 50.901C130.58 58.9988 126.633 64.9233 119.818 64.9233C116.062 64.9233 113.891 63.4446 113.395 62.8479C112.897 62.2594 112.207 62.1567 112.207 62.8479V72.2328H103.614ZM112.009 51.1991C111.918 56.2326 113.005 58.8986 117.154 58.8986C121.296 58.8986 121.891 54.3571 121.891 50.901C121.891 47.4429 121.105 44.0857 116.753 44.0857C114.083 44.0857 112.111 46.1604 112.009 51.1991ZM66.3333 47.5441C66.3333 45.0725 64.9535 42.7029 61.7932 42.7029C58.7318 42.7029 57.6447 44.8734 57.6447 47.5441H66.3333ZM74.4386 52.6776C74.4386 39.9377 68.1211 37.1736 60.9079 37.1736C52.5135 37.1736 48.7634 44.8731 48.7634 51.4924C48.7634 58.1094 53.0107 64.5288 61.6987 64.5288C69.3047 64.6269 74.342 59.6892 74.342 56.034H65.9453C65.9453 56.034 64.9585 58.4059 61.9951 58.4059C59.0325 58.4059 57.3554 56.7266 57.3554 52.6776H74.4386ZM93.6438 47.5441C93.6438 45.0725 92.2624 42.7029 89.1022 42.7029C86.0423 42.7029 84.9528 44.8734 84.9528 47.5441H93.6438ZM101.746 52.6776C101.746 39.9378 95.4299 37.1736 88.2176 37.1736C79.8254 37.1736 76.0707 44.8731 76.0707 51.4925C76.0707 58.1094 80.318 64.5288 89.0105 64.5288C96.6143 64.6269 101.652 59.6892 101.652 56.034H93.2556C93.2556 56.034 92.2673 58.4059 89.307 58.4059C86.3421 58.4059 84.6635 56.7266 84.6635 52.6776H101.746ZM124.956 68.1484C124.956 66.799 126.055 65.7028 127.409 65.7028C128.758 65.7028 129.854 66.799 129.854 68.1484C129.854 69.4956 128.758 70.5987 127.409 70.5987C126.055 70.5987 124.956 69.4956 124.956 68.1484ZM127.408 70.8833C125.895 70.8833 124.672 69.6578 124.672 68.148C124.672 66.6381 125.895 65.4126 127.408 65.4126C128.911 65.4126 130.14 66.6381 130.14 68.148C130.14 69.6578 128.911 70.8833 127.408 70.8833Z" fill="#757B8A"/>
</g>
</svg>
