<svg width="148" height="100" viewBox="0 0 148 100" fill="none" xmlns="http://www.w3.org/2000/svg">
<g id="Frame 48095483">
<g id="Group">
<path id="Vector" d="M86.8523 59.1147C80.3594 63.9155 70.9152 66.4733 62.7696 66.4733C51.3579 66.4733 41.1267 62.2628 33.3353 55.2584C32.745 54.7074 33.2566 53.9598 34.0042 54.3926C42.386 59.2721 52.7352 62.1841 63.4386 62.1841C70.6398 62.1841 78.5886 60.6888 85.9078 57.5801C87.0097 57.1472 87.9147 58.3277 86.8523 59.1147Z" fill="#757B8A"/>
<path id="Vector_2" d="M89.5663 56.0059C88.74 54.9434 84.0572 55.4944 81.9716 55.7698C81.342 55.8485 81.224 55.2976 81.8142 54.9041C85.5526 52.2676 91.6519 53.0546 92.3602 53.9203C93.0685 54.786 92.1635 60.9248 88.6613 63.8367C88.1103 64.2696 87.5988 64.0335 87.8349 63.4432C88.6219 61.4757 90.3927 57.1077 89.5663 56.0059Z" fill="#757B8A"/>
<path id="Exclude" fill-rule="evenodd" clip-rule="evenodd" d="M40.4968 52.2678H37.0339C36.7191 52.2284 36.4436 51.9923 36.4043 51.6775V33.891C36.4043 33.5368 36.7191 33.2614 37.0733 33.2614H40.3C40.6542 33.2614 40.8903 33.5368 40.9296 33.8516V36.1733H41.0083C41.8347 33.9303 43.4481 32.8679 45.573 32.8679C47.7373 32.8679 49.1146 33.9303 50.059 36.1733C50.8854 33.9303 52.8135 32.8679 54.8598 32.8679C56.3158 32.8679 57.8898 33.4581 58.8736 34.8354C59.8114 36.1081 59.7799 37.8655 59.7498 39.5495L59.7498 39.5498V39.5498V39.5499C59.7445 39.8442 59.7393 40.1363 59.7393 40.4232V51.6775C59.7393 52.0317 59.4245 52.3071 59.0703 52.3071H55.6468C55.2926 52.2678 55.0172 51.9923 55.0172 51.6775V42.2333C55.0172 42.0725 55.0208 41.8588 55.025 41.6154L55.025 41.6151C55.0401 40.7272 55.062 39.4444 54.9385 38.8885C54.663 37.708 53.9154 37.3538 52.8922 37.3538C52.0659 37.3538 51.1608 37.9048 50.8067 38.8098C50.4837 39.6352 50.488 40.9514 50.4912 41.9528V41.9528V41.9528C50.4915 42.0495 50.4919 42.1432 50.4919 42.2333V51.6775C50.4919 52.0317 50.177 52.3071 49.8229 52.3071H46.36C46.0059 52.2678 45.7304 51.9923 45.7304 51.6775V42.2333C45.7304 42.0373 45.7335 41.8315 45.7368 41.6198C45.7658 39.707 45.8021 37.3145 43.6055 37.3145C41.1997 37.3145 41.2027 39.9826 41.2049 42.0464L41.2051 42.2333V51.6775C41.1657 51.9923 40.8903 52.2678 40.4968 52.2678ZM82.091 36.4096V33.8518C82.091 33.4583 82.3664 33.2222 82.7206 33.2222H94.1323C94.4864 33.2222 94.8013 33.4977 94.8013 33.8518V36.0161C94.8013 36.3703 94.4864 36.8425 93.9355 37.6295L88.0329 46.0506C90.2366 46.0112 92.5583 46.326 94.5258 47.4278C94.9587 47.6639 95.0767 48.0575 95.1161 48.4116V51.1268C95.1161 51.5203 94.7225 51.9532 94.2897 51.7171C90.7875 49.8676 86.1047 49.6708 82.2484 51.7564C81.8549 51.9532 81.422 51.5597 81.422 51.1662V48.569C81.422 48.1755 81.422 47.4672 81.8549 46.8376L88.7019 37.0393H82.7599C82.4058 37.0393 82.091 36.7638 82.091 36.4096ZM112.587 42.9023C112.587 37.2751 109.793 32.8679 104.638 32.8679C99.6012 32.8679 96.8073 37.1964 96.8466 42.7449C96.8466 48.254 99.6012 52.6613 104.638 52.6613C109.518 52.6613 112.587 48.3327 112.587 42.9023ZM104.639 36.5273C102.081 36.5273 101.923 40.0295 101.923 42.1938L101.923 42.2853C101.923 44.486 101.922 49.0014 104.599 49.0014C107.275 49.0014 107.433 45.2631 107.433 42.9808C107.433 41.4855 107.354 39.6753 106.921 38.2587C106.527 36.9995 105.74 36.5273 104.639 36.5273ZM115.775 52.2678H119.238C119.592 52.2678 119.907 51.9923 119.946 51.6382V42.0366C119.946 40.8167 120.025 39.7542 120.497 38.6524C120.891 37.7867 121.678 37.2358 122.504 37.2358C124.711 37.2358 124.689 39.632 124.671 41.5475C124.67 41.7148 124.668 41.8785 124.668 42.0366V51.7169C124.708 51.9923 124.983 52.2284 125.298 52.2678H128.761C129.115 52.2678 129.39 52.0317 129.43 51.7169V40.5019C129.43 38.7705 129.43 36.3701 128.525 34.9534C127.541 33.4188 126.006 32.8679 124.471 32.8679C122.071 32.8679 120.733 34.009 119.749 36.4488H119.671V33.7336C119.592 33.4581 119.356 33.222 119.041 33.222H115.814C115.46 33.222 115.185 33.4975 115.145 33.8123V51.6382C115.145 51.953 115.421 52.2284 115.775 52.2678Z" fill="#757B8A"/>
<path id="Subtract" fill-rule="evenodd" clip-rule="evenodd" d="M75.6766 52.3069C75.952 52.4643 76.2668 52.425 76.5029 52.2282C76.7543 52.0187 77.0752 51.7448 77.4179 51.4521C78.0407 50.9202 78.7358 50.3266 79.2181 49.9459C79.4936 49.7491 79.4542 49.3556 79.2181 49.0408C79.1422 48.9317 79.0658 48.8255 78.99 48.7202C78.437 47.9518 77.9196 47.233 77.9196 45.8141V40.423C77.9196 40.2428 77.9205 40.0636 77.9215 39.8856C77.9329 37.8086 77.9434 35.8915 76.3849 34.4417C75.047 33.1431 72.8433 32.7103 71.1512 32.7103C67.8458 32.7103 64.1862 33.9301 63.3991 38.0226C63.3204 38.4555 63.6352 38.6522 63.9107 38.7309L67.2555 39.0851C67.5703 39.0851 67.7671 38.7703 67.8458 38.4555C68.1212 37.0388 69.3018 36.3699 70.6397 36.3699C71.348 36.3699 72.135 36.6453 72.5679 37.2749C73.0201 37.9012 73.011 38.7427 73.0028 39.5004C73.0018 39.5997 73.0007 39.6976 73.0007 39.7934V40.2263C72.6742 40.2647 72.3311 40.301 71.9772 40.3385C70.1558 40.5313 68.05 40.7542 66.4685 41.4461C64.3042 42.3905 62.7695 44.2794 62.7695 47.1126C62.7695 50.6935 65.0519 52.5037 67.9638 52.5037C70.4036 52.5037 71.7808 51.9134 73.6697 49.9852C73.7612 50.1167 73.8443 50.2391 73.9232 50.3551C74.387 51.0375 74.7012 51.4997 75.6766 52.3069ZM73.001 43.9792C73.0009 43.9093 73.0008 43.839 73.0008 43.768V43.0204C70.4823 43.0204 67.8458 43.5713 67.8458 46.5226C67.8458 48.0179 68.6328 49.041 69.9708 49.041C70.9545 49.041 71.8203 48.4508 72.3712 47.467C73.0047 46.3118 73.003 45.2272 73.001 43.9792Z" fill="#757B8A"/>
<path id="Subtract_2" fill-rule="evenodd" clip-rule="evenodd" d="M30.1863 52.3069C30.4618 52.4643 30.7766 52.425 31.0127 52.2282C31.2641 52.0187 31.5849 51.7448 31.9276 51.4521C32.5505 50.9202 33.2456 50.3266 33.7279 49.9459C34.0034 49.7491 33.964 49.3556 33.7279 49.0408C33.652 48.9317 33.5755 48.8255 33.4998 48.7202C32.9467 47.9518 32.4293 47.233 32.4293 45.8141V40.423C32.4293 40.2428 32.4303 40.0636 32.4313 39.8856C32.4426 37.8086 32.4531 35.8915 30.8946 34.4417C29.5567 33.1431 27.3531 32.7103 25.661 32.7103C22.3555 32.7103 18.6959 33.9301 17.9089 38.0226C17.8302 38.4555 18.145 38.6522 18.4205 38.7309L21.7653 39.0851C22.0801 39.0851 22.2768 38.7703 22.3555 38.4555C22.631 37.0388 23.8115 36.3699 25.1494 36.3699C25.8578 36.3699 26.6448 36.6453 27.0776 37.2749C27.5299 37.9012 27.5208 38.7427 27.5126 39.5004C27.5115 39.5997 27.5105 39.6976 27.5105 39.7934V40.2263C27.184 40.2647 26.8408 40.301 26.4869 40.3385C24.6655 40.5313 22.5598 40.7542 20.9783 41.4461C18.814 42.3905 17.2793 44.2794 17.2793 47.1126C17.2793 50.6935 19.5616 52.5037 22.4736 52.5037C24.9133 52.5037 26.2906 51.9134 28.1794 49.9852C28.2709 50.1167 28.3541 50.2391 28.4329 50.3551C28.8968 51.0375 29.211 51.4997 30.1863 52.3069ZM27.55 43.9792C27.5499 43.9093 27.5498 43.839 27.5498 43.768V43.0204C25.0313 43.0204 22.3948 43.5713 22.3948 46.5226C22.3948 48.0179 23.1819 49.041 24.5198 49.041C25.5035 49.041 26.3693 48.4508 26.9202 47.467C27.5537 46.3118 27.552 45.2272 27.55 43.9792Z" fill="#757B8A"/>
</g>
</g>
</svg>
