<svg width="148" height="100" viewBox="0 0 148 100" fill="none" xmlns="http://www.w3.org/2000/svg">
<g id="Frame 48095485">
<g id="Group">
<path id="Exclude" fill-rule="evenodd" clip-rule="evenodd" d="M21.6711 39.7419H17.7383V61.19H21.6711V52.2689H29.9656V61.19H33.9035V39.7419H29.9656V48.4795H21.6711V39.7419ZM43.105 57.4604C44.9 57.4604 46.3628 55.9993 46.3628 54.2039V44.9697H50.0912V54.2039C50.0912 58.0563 46.9568 61.1898 43.105 61.1898C39.2524 61.1898 36.1177 58.0563 36.1177 54.2039V44.9697H39.8474V54.2039C39.8474 55.9993 41.3093 57.4604 43.105 57.4604ZM60.5029 45.0781C58.6528 45.0781 57.3614 45.6149 56.1143 46.8392V39.7419H52.3724V52.895C52.3724 57.8183 55.9321 61.19 59.9312 61.19C64.3771 61.19 68.2724 57.7582 68.2724 53.1343C68.2724 48.569 64.6804 45.0781 60.5029 45.0781ZM56.1217 53.1345C56.1217 55.6111 58.0606 57.7286 60.5961 57.7286C62.7444 57.7286 64.6844 55.6111 64.6844 53.1345C64.6844 50.6574 62.7444 48.5392 60.5961 48.5392C58.0606 48.5392 56.1217 50.6574 56.1217 53.1345ZM74.557 46.021C74.557 44.14 75.8103 43.5437 77.1823 43.5437C78.2869 43.5437 79.7486 44.3791 80.7025 45.3938L83.1485 42.5296C81.926 40.8888 79.4501 39.7547 77.4211 39.7547C73.3629 39.7547 70.4389 42.1119 70.4389 46.021C70.4389 50.1681 73.358 51.1911 75.8567 52.0667C77.7262 52.7219 79.3604 53.2946 79.3604 55.0317C79.3604 56.2835 78.1375 57.3885 76.736 57.3885C74.7296 57.3885 73.9546 56.5021 73.0694 55.4896C72.9801 55.3875 72.8897 55.2841 72.7968 55.1802L70.0811 57.9844C71.8127 60.103 73.9602 61.1777 76.5265 61.1777C80.3751 61.1777 83.4783 58.7907 83.4783 55.0606C83.4783 50.2028 80.234 49.186 77.6583 48.3787C75.9628 47.8472 74.557 47.4066 74.557 46.021ZM85.7701 53.162C85.7701 48.2376 89.3301 44.8679 93.3288 44.8679C97.7738 44.8679 101.67 48.2989 101.67 52.9234C101.67 57.4887 98.0778 60.9792 93.9005 60.9792C92.0498 60.9792 90.759 60.4414 89.5117 59.2181V66.349H85.7701V53.162ZM93.9936 57.5189C91.4584 57.5189 89.5193 55.3985 89.5193 52.9236C89.5193 50.4466 91.4584 48.3284 93.9936 48.3284C96.1415 48.3284 98.0817 50.4466 98.0817 52.9236C98.0817 55.3985 96.1415 57.5189 93.9936 57.5189ZM126.379 55.3117C126.379 56.7742 127.006 57.7286 129.213 57.7286C129.632 57.7286 130.109 57.6988 130.526 57.67L129.601 61.071C129.243 61.1593 128.586 61.1902 128.108 61.1902C124.917 61.1902 122.591 59.4892 122.591 56.1173V42.9294L126.379 41.2291V45.5559H129.81V48.8375H126.379V55.3117Z" fill="#757B8A"/>
<path id="Exclude_2" fill-rule="evenodd" clip-rule="evenodd" d="M116.358 46.0599C117.619 46.8047 118.628 47.7941 119.346 49.0282C120.05 50.2533 120.386 51.5905 120.386 53.0399V53.1135C120.386 54.5869 119.969 55.9261 119.212 57.1382C118.458 58.347 117.461 59.2938 116.187 59.9862C114.977 60.6414 113.691 60.9617 112.327 60.9617H112.101C110.868 60.9617 109.741 60.6927 108.72 60.2512C108.202 60.0276 107.72 59.7683 107.275 59.4604L104.022 62.7131C104.099 62.9576 104.14 63.2149 104.14 63.4786C104.141 64.1554 103.872 64.8047 103.393 65.2823C102.915 65.7625 102.266 66.0317 101.588 66.0299C100.911 66.0317 100.262 65.7625 99.7846 65.2823C99.3025 64.8005 99.0371 64.16 99.0369 63.4786C99.0346 62.8017 99.3033 62.1519 99.7832 61.6744C100.484 60.9698 101.532 60.74 102.463 61.0866L105.61 57.9324C105.089 57.2902 104.669 56.5799 104.382 55.7987C104.055 54.9041 103.863 53.9517 103.863 52.943V52.6431C103.863 51.2061 104.326 49.8887 105.083 48.6914C105.456 48.1041 105.923 47.5806 106.424 47.1204L96.9431 40.2893L96.2531 39.7659C95.7566 40.0651 95.1812 40.247 94.559 40.247C92.7352 40.247 91.2578 38.7688 91.2578 36.9458C91.2578 35.1226 92.7336 33.6448 94.5575 33.6448C96.3814 33.6448 97.8578 35.1226 97.8578 36.9458C97.8578 37.2498 97.7981 37.538 97.7206 37.8176C100.219 39.7126 104.07 42.6387 106.509 44.4915C107.263 45.0638 107.881 45.5337 108.284 45.8392C109.118 45.4171 110.032 45.1423 110.913 45.015V41.0919C109.812 40.6242 109.167 39.589 109.167 38.3813C109.167 36.7352 110.511 35.4013 112.157 35.4013C113.801 35.4013 115.121 36.7352 115.121 38.3813C115.121 39.589 114.438 40.6242 113.336 41.0919V45.0132C114.438 45.1628 115.415 45.5111 116.358 46.0599ZM112.328 57.4371C113.475 57.4371 114.49 56.8328 115.372 55.8518C116.141 55.0065 116.525 54.0753 116.525 53.0698C116.525 52.9191 116.519 52.7614 116.507 52.6074C116.43 51.8665 116.19 51.1865 115.787 50.556C115.372 49.9257 114.837 49.4465 114.182 49.0958C113.539 48.7669 112.858 48.625 112.139 48.625H112.065C111.271 48.625 110.559 48.8407 109.892 49.2804C109.213 49.7232 108.702 50.2802 108.323 50.9964C107.97 51.6515 107.829 52.3453 107.829 53.0769V53.3029C107.829 54.0471 108.076 54.749 108.531 55.3918C108.971 56.0467 109.508 56.564 110.215 56.9266C110.843 57.256 111.484 57.4371 112.139 57.4371H112.328Z" fill="#757B8A"/>
</g>
</g>
</svg>
