<svg width="147" height="100" viewBox="0 0 147 100" fill="none" xmlns="http://www.w3.org/2000/svg">
<g id="Frame 48095484">
<g id="Group">
<path id="Vector" d="M41.0098 52.8588C39.446 59.1324 33.0929 62.9487 26.8192 61.3849C20.5488 59.821 16.7314 53.4676 18.296 47.1954C19.8591 40.9217 26.2118 37.1043 32.4833 38.6682C38.7563 40.232 42.5733 46.5862 41.0095 52.8588H41.0098Z" fill="#757B8A"/>
<path id="Exclude" fill-rule="evenodd" clip-rule="evenodd" d="M34.8145 48.3587C35.0476 46.8007 33.8614 45.9632 32.2393 45.4045L32.7655 43.294L31.4808 42.9738L30.9686 45.0287C30.6264 44.9446 30.2834 44.8639 29.9397 44.7865L30.4556 42.718L29.1713 42.3979L28.6451 44.5077C28.3656 44.444 28.0912 44.3811 27.8248 44.3148L27.8262 44.3082L26.0546 43.8659L25.7128 45.238C25.7128 45.238 26.666 45.4564 26.6459 45.47C27.1662 45.5999 27.2602 45.9442 27.2445 46.2171L26.6451 48.6214C26.681 48.6306 26.7275 48.6441 26.7787 48.6642L26.6429 48.6306L25.8028 51.9987C25.7392 52.1567 25.5778 52.3938 25.2137 52.3038C25.2269 52.3225 24.2803 52.0708 24.2803 52.0708L23.6426 53.5417L25.3144 53.9588C25.506 54.0066 25.6952 54.0559 25.8825 54.1047L25.8825 54.1047C25.9992 54.1351 26.115 54.1653 26.2302 54.1948L25.6986 56.3294L26.9818 56.6496L27.5079 54.5373C27.8584 54.6328 28.1987 54.7202 28.5317 54.8033L28.007 56.9054L29.2913 57.2255L29.8233 55.0949C32.0139 55.5095 33.6612 55.3422 34.3546 53.3613C34.9133 51.766 34.3268 50.8457 33.1742 50.2453C34.0136 50.0514 34.6458 49.4992 34.8145 48.3587ZM31.8787 52.4744C31.5143 53.9388 29.2211 53.3326 28.1737 53.0557C28.08 53.0309 27.9963 53.0088 27.9249 52.991L28.6303 50.163C28.7181 50.1849 28.8255 50.2091 28.9471 50.2364C30.0317 50.48 32.2518 50.9787 31.8787 52.4744ZM29.1642 48.9239C30.0382 49.1572 31.9445 49.6659 32.2765 48.336V48.3357C32.6156 46.975 30.7628 46.5648 29.8579 46.3645C29.7561 46.342 29.6664 46.3221 29.593 46.3038L28.9534 48.8688C29.0139 48.8838 29.0848 48.9027 29.1642 48.9239Z" fill="#757B8A"/>
<path id="Exclude_2" fill-rule="evenodd" clip-rule="evenodd" d="M52.257 45.4023C53.2065 45.4023 54.0269 45.5724 54.7158 45.9065C55.4088 46.2438 55.9804 46.6983 56.4388 47.2698C56.8911 47.8443 57.2277 48.5157 57.4451 49.2852C57.6609 50.0572 57.7693 50.8863 57.7693 51.774C57.7693 53.1388 57.5193 54.4268 57.0148 55.6415C56.5098 56.8581 55.8256 57.9138 54.9548 58.8139C54.0847 59.7129 53.0572 60.4212 51.8724 60.9448C50.6895 61.4688 49.4034 61.7308 48.0225 61.7308C47.8439 61.7308 47.53 61.7257 47.0865 61.7165C46.643 61.7074 46.1333 61.6616 45.5625 61.5848C44.949 61.4972 44.3404 61.3777 43.7393 61.227C43.1102 61.0751 42.499 60.8567 41.916 60.5757L47.043 39.0323L51.635 38.321L49.7993 45.9657C50.181 45.7932 50.5772 45.6546 50.9833 45.5515C51.4001 45.4502 51.8277 45.4001 52.2566 45.4023H52.257ZM48.4052 58.0879C49.0968 58.0879 49.7481 57.9178 50.3606 57.5841C50.9763 57.2475 51.5166 56.7885 51.9482 56.2354C52.3993 55.6586 52.7543 55.0128 52.9994 54.3228C53.2565 53.6096 53.387 52.857 53.3851 52.0989C53.3851 51.1505 53.2267 50.4121 52.9109 49.8768C52.5951 49.3444 52.0108 49.0766 51.1619 49.0766C50.8838 49.0766 50.526 49.1297 50.0818 49.2244C49.6361 49.325 49.2373 49.534 48.8798 49.8483L46.9248 57.9668C47.0426 57.9877 47.1469 58.0074 47.2358 58.0261C47.3229 58.0462 47.4188 58.0605 47.515 58.0704C47.6164 58.0817 47.7324 58.0876 47.8725 58.0876L48.4049 58.0879H48.4052ZM58.1452 61.3189H62.5312L66.2652 45.7328H61.8492L58.1452 61.3189ZM64.6657 43.8338C64.0673 43.8388 63.484 43.6464 63.006 43.2864C62.5094 42.9234 62.2632 42.3647 62.2632 41.6117C62.2632 41.1975 62.3474 40.8089 62.5146 40.4423C62.6762 40.0871 62.9028 39.7654 63.1827 39.4935C63.4633 39.2257 63.7891 39.0098 64.145 38.8558C64.5155 38.6975 64.9145 38.617 65.3173 38.6194C65.9291 38.6194 66.4809 38.8016 66.9756 39.1668C67.4681 39.5338 67.7158 40.0925 67.7158 40.8415C67.7182 41.2458 67.632 41.6457 67.4633 42.0131C67.3033 42.3686 67.0773 42.6905 66.7974 42.9619C66.5175 43.23 66.1915 43.4454 65.8351 43.5978C65.4685 43.7581 65.0799 43.8338 64.6657 43.8338ZM74.7028 41.1377L70.109 41.8494L67.2037 54.1165C66.967 55.1238 66.8294 56.081 66.7892 56.9913C66.75 57.8999 66.8902 58.7059 67.2037 59.4048C67.5217 60.1066 68.053 60.6613 68.8045 61.0667C69.5572 61.4692 70.6135 61.6715 71.9761 61.6715C72.9238 61.6715 73.7438 61.5951 74.4364 61.4355C75.0897 61.2894 75.7331 61.1018 76.3625 60.8739L76.0347 57.4948C75.5953 57.6502 75.1453 57.7737 74.6882 57.8644C74.2432 57.9536 73.7818 57.9986 73.3087 57.9986C72.7343 57.9986 72.2963 57.9185 71.99 57.7594C71.6827 57.6031 71.4712 57.3817 71.3534 57.0945C71.2348 56.808 71.1843 56.4677 71.2063 56.0715C71.2253 55.6767 71.2934 55.2522 71.4134 54.7981L72.716 49.3463H77.6062L78.4946 45.7319H73.5748L74.7028 41.1377ZM78.302 55.0952C78.302 53.7523 78.5193 52.4867 78.9533 51.3012C79.3869 50.1149 80.0115 49.0776 80.8215 48.1878C81.6291 47.3023 82.613 46.6001 83.7714 46.085C84.9233 45.5727 86.2141 45.3144 87.636 45.3144C88.5266 45.3144 89.3217 45.3985 90.0217 45.5672C90.7242 45.7374 91.3594 45.9573 91.9342 46.2331L90.422 49.6726C90.0189 49.5106 89.6085 49.3672 89.1922 49.243C88.7677 49.1124 88.25 49.0495 87.6371 49.0495C86.1728 49.0495 85.0158 49.5544 84.1545 50.5599C83.2961 51.5665 82.864 52.9214 82.864 54.6213C82.864 55.6287 83.0817 56.4428 83.5178 57.0659C83.9518 57.689 84.7535 57.9993 85.9174 57.9993C86.4915 57.9993 87.0462 57.9393 87.5771 57.8222C88.1121 57.7037 88.5844 57.5544 89.0005 57.378L89.3283 60.9038C88.7282 61.134 88.1147 61.3275 87.4911 61.4834C86.8179 61.648 86.0177 61.7329 85.0894 61.7329C83.8644 61.7329 82.8267 61.554 81.9785 61.2005C81.1296 60.8423 80.4282 60.3663 79.8753 59.7633C79.3199 59.1588 78.9214 58.4527 78.6748 57.6429C78.4282 56.8332 78.3016 55.9817 78.3016 55.0952H78.302ZM95.0579 61.2566C95.8292 61.5724 96.7388 61.7319 97.7857 61.7319C99.2277 61.7319 100.498 61.43 101.594 60.8274C102.691 60.2251 103.604 59.4502 104.334 58.5025C105.066 57.5533 105.62 56.4849 105.994 55.3031C106.367 54.1161 106.555 52.9284 106.555 51.7451C106.555 50.7978 106.427 49.9317 106.169 49.1534C105.914 48.3715 105.532 47.6972 105.031 47.1227C104.524 46.5512 103.883 46.1044 103.105 45.7894C102.323 45.4736 101.419 45.3137 100.391 45.3137C98.9898 45.3137 97.7432 45.6159 96.6591 46.2167C95.5746 46.8216 94.6525 47.5973 93.905 48.546C93.1527 49.4934 92.5837 50.5596 92.1999 51.7451C91.8142 52.9295 91.624 54.1165 91.624 55.3034C91.624 56.25 91.7484 57.1139 92.0071 57.894C92.2657 58.6744 92.643 59.3517 93.1479 59.9233C93.6521 60.4977 94.2888 60.9412 95.0579 61.2566ZM99.9779 49.0498C99.3277 49.0498 98.7529 49.2382 98.2607 49.6111C97.7668 49.9883 97.3522 50.4629 97.0178 51.0344C96.6797 51.6089 96.4294 52.2353 96.26 52.9162C96.0917 53.5986 96.0094 54.2444 96.0094 54.8566C96.0094 55.8456 96.1693 56.6166 96.4825 57.1705C96.8001 57.7216 97.3716 57.9993 98.2015 57.9993C98.8539 57.9993 99.4261 57.8116 99.9208 57.4351C100.412 57.0608 100.828 56.5862 101.164 56.0128C101.5 55.442 101.753 54.8134 101.922 54.131C102.088 53.4508 102.173 52.8021 102.173 52.1903C102.173 51.2038 102.014 50.4318 101.697 49.8782C101.381 49.3268 100.807 49.0494 99.9779 49.0494V49.0498ZM106.946 61.3189H111.335L115.068 45.7328H110.65L106.946 61.3189ZM113.466 43.8338C112.868 43.8389 112.285 43.6464 111.808 43.2864C111.313 42.9235 111.065 42.3647 111.065 41.6117C111.065 41.1975 111.15 40.8089 111.317 40.4423C111.478 40.0867 111.704 39.7648 111.985 39.4935C112.266 39.2256 112.592 39.0097 112.948 38.8558C113.317 38.6974 113.715 38.617 114.116 38.6194C114.73 38.6194 115.284 38.8016 115.777 39.1668C116.271 39.5338 116.52 40.0925 116.52 40.8415C116.52 41.2572 116.431 41.6472 116.265 42.0131C116.1 42.379 115.877 42.694 115.601 42.9619C115.32 43.2294 114.995 43.4447 114.639 43.5978C114.271 43.7581 113.882 43.8338 113.466 43.8338ZM119.337 46.0997C118.933 46.2271 118.561 46.3442 118.229 46.4415L114.642 61.3163H119.058L121.933 49.2571C122.508 49.1397 123.093 49.0794 123.68 49.077C124.273 49.077 124.71 49.1908 125 49.4173C125.281 49.6405 125.475 49.9557 125.546 50.3076C125.628 50.6746 125.632 51.0994 125.562 51.5809C125.492 52.0668 125.399 52.5644 125.28 53.0785L123.324 61.3174H127.739L129.757 52.9018C130.328 50.5714 130.175 48.7335 129.296 47.3903C128.415 46.047 126.821 45.3734 124.508 45.3734C123.721 45.3734 123.012 45.4078 122.391 45.4784C121.769 45.5476 121.204 45.6372 120.703 45.747C120.242 45.8427 119.787 45.9604 119.337 46.0997Z" fill="#757B8A"/>
</g>
</g>
</svg>
