<svg width="90" height="90" viewBox="0 0 90 90" fill="none" xmlns="http://www.w3.org/2000/svg">
<g id="logos:google-marketing-platform" clip-path="url(#clip0_131_835)">
<path id="Vector" d="M60.8916 29.1094C69.6807 37.8984 69.6807 52.1367 60.8916 60.9258C56.4971 65.3203 56.4971 72.457 60.8916 76.8164C65.2861 81.2109 72.4229 81.2109 76.8174 76.8164C94.3955 59.2383 94.3955 30.7617 76.8174 13.1836L60.8916 29.1094Z" fill="#5BFFFF"/>
<path id="Vector_2" d="M76.7812 13.1836C59.2031 -4.39453 30.7617 -4.39453 13.1836 13.1836C-4.39453 30.7617 -4.39453 59.2383 13.1836 76.8164L29.1094 60.9258C20.3203 52.1367 20.3203 37.8984 29.1094 29.1094C37.8984 20.3203 52.1367 20.3203 60.9258 29.1094C65.3203 33.5039 72.457 33.5039 76.8516 29.1094C81.1758 24.7148 81.1758 17.5781 76.7812 13.1836Z" fill="url(#paint0_linear_131_835)"/>
<path id="Vector_3" d="M76.7813 76.8164L60.8555 60.9258C52.0664 69.7148 37.8281 69.7148 29.0391 60.9258L13.1133 76.8164C30.7617 94.3945 59.2031 94.3945 76.7813 76.8164Z" fill="white"/>
<path id="Vector_4" d="M60.8916 60.9258C65.2861 56.5312 72.3877 56.5312 76.7822 60.9258C81.1768 65.3203 81.1768 72.457 76.7822 76.8516C72.3877 81.2461 65.2861 81.2461 60.8916 76.8516C56.4971 72.457 56.4971 65.3203 60.8916 60.9258Z" fill="#11426F"/>
<path id="Vector_5" d="M13.1826 60.9258C17.5771 56.5312 24.6787 56.5312 29.0732 60.9258C33.4678 65.3203 33.4678 72.457 29.0732 76.8516C24.6787 81.2461 17.5771 81.2461 13.1826 76.8516C8.78809 72.457 8.78809 65.3203 13.1826 60.9258Z" fill="#6ED3DC"/>
</g>
<defs>
<linearGradient id="paint0_linear_131_835" x1="40.043" y1="0" x2="40.043" y2="76.8164" gradientUnits="userSpaceOnUse">
<stop stop-color="#5BFFFF"/>
<stop offset="1" stop-color="#00FF00"/>
</linearGradient>
<clipPath id="clip0_131_835">
<rect width="90" height="90" fill="white"/>
</clipPath>
</defs>
</svg>
