<svg width="100" height="100" viewBox="0 0 100 100" fill="none" xmlns="http://www.w3.org/2000/svg">
<g id="mdi:web-check">
<path id="Vector" d="M68.7506 49.9999C68.7506 47.1666 68.5007 44.4166 68.1673 41.6666H82.2506C82.9173 44.3333 83.334 47.1249 83.334 49.9999C83.334 51.5416 83.209 53.0416 83.0006 54.4999C85.8756 54.9166 88.5423 55.8333 91.0006 57.1666C91.4173 54.8333 91.6673 52.4583 91.6673 49.9999C91.6673 27.0833 72.9173 8.33325 50.0006 8.33325C26.959 8.33325 8.33398 27.0833 8.33398 49.9999C8.33398 72.9166 27.084 91.6666 50.0006 91.6666C52.459 91.6666 54.834 91.4166 57.1673 90.9999C55.1883 87.3705 54.1565 83.3005 54.1673 79.1666C54.1673 77.9583 54.2923 76.7916 54.459 75.6249C53.1256 78.2499 51.6673 80.7916 50.0006 83.1666C46.5423 78.1666 43.7506 72.6249 42.0423 66.6666H57.5423C60.0448 62.3181 63.8078 58.8312 68.334 56.6666C68.584 54.4583 68.7506 52.2499 68.7506 49.9999ZM50.0006 16.7916C53.459 21.7916 56.2506 27.3749 57.959 33.3333H42.0423C43.7506 27.3749 46.5423 21.7916 50.0006 16.7916ZM17.7507 58.3333C17.084 55.6666 16.6673 52.8749 16.6673 49.9999C16.6673 47.1249 17.084 44.3333 17.7507 41.6666H31.834C31.5007 44.4166 31.2507 47.1666 31.2507 49.9999C31.2507 52.8333 31.5007 55.5833 31.834 58.3333H17.7507ZM21.1673 66.6666H33.334C34.7923 71.8749 36.6673 76.8749 39.1673 81.4999C31.5782 78.8819 25.1875 73.6154 21.1673 66.6666ZM33.334 33.3333H21.1673C25.1625 26.3633 31.5623 21.0894 39.1673 18.4999C36.6673 23.1249 34.7923 28.1249 33.334 33.3333ZM59.7506 58.3333H40.2506C39.834 55.5833 39.584 52.8333 39.584 49.9999C39.584 47.1666 39.834 44.3749 40.2506 41.6666H59.7506C60.1256 44.3749 60.4173 47.1666 60.4173 49.9999C60.4173 52.8333 60.1256 55.5833 59.7506 58.3333ZM60.7923 18.4999C68.459 21.1249 74.834 26.4166 78.834 33.3333H66.5423C65.2382 28.1727 63.3072 23.1912 60.7923 18.4999ZM93.7506 71.8749L73.959 91.6666L62.5006 79.1666L67.334 74.3333L73.959 80.9583L88.9173 65.9999L93.7506 71.8749Z" fill="url(#paint0_linear_131_858)"/>
<path id="Vector_2" d="M93.75 71.875L73.9583 91.6667L62.5 79.1667L67.3333 74.3333L73.9583 80.9583L88.9167 66L93.75 71.875Z" fill="white"/>
</g>
<defs>
<linearGradient id="paint0_linear_131_858" x1="51.0423" y1="8.33325" x2="51.0423" y2="91.6666" gradientUnits="userSpaceOnUse">
<stop stop-color="#5BFFFF"/>
<stop offset="1" stop-color="#00FF00"/>
</linearGradient>
</defs>
</svg>
