<svg width="100" height="100" viewBox="0 0 100 100" fill="none" xmlns="http://www.w3.org/2000/svg">
<g id="noto-v1:performing-arts">
<path id="Vector" d="M88.4297 47.6952L90.5859 55.0311C90.5859 55.0311 96.6094 53.6952 96.9375 57.6874C97.2578 61.6874 91.3125 64.3593 91.3125 64.3593L93.1875 73.164C93.1875 73.164 99.75 67.8515 99.8516 60.2343C99.8516 60.2343 100.43 50.8671 94.8047 48.6718C91.2734 47.3046 88.4297 47.6952 88.4297 47.6952Z" fill="white"/>
<path id="Vector_2" d="M53.9057 75.6642C53.9057 75.6642 44.6948 71.7579 40.1948 77.2736C39.5776 78.0314 38.9916 78.8126 38.4057 79.5939C37.937 80.211 37.476 80.836 36.9682 81.422C36.5541 81.8985 36.101 82.3517 35.5776 82.7032C35.062 83.047 34.4916 83.2814 33.8901 83.4142C33.1323 83.5704 32.3432 83.5704 31.5776 83.5079C30.476 83.4142 29.3823 83.2032 28.3041 82.9532C27.9526 82.8751 27.601 82.7892 27.2573 82.6954C27.1713 82.672 27.0776 82.6485 26.9838 82.6251C26.9291 82.6095 26.812 82.5548 26.7573 82.5626C26.4291 82.6329 26.9526 83.2032 27.0463 83.3126C27.2651 83.586 27.4995 83.8439 27.7495 84.086C28.4213 84.7423 29.1791 85.297 30.0073 85.7267C31.0741 86.2747 32.2407 86.6015 33.437 86.6876C33.5463 86.6954 33.7338 86.6876 33.7963 86.7892C33.9291 86.9845 33.5776 87.1642 33.4291 87.2501C33.226 87.3751 33.0151 87.4845 32.7963 87.5782C32.0854 87.8829 31.3276 88.0704 30.5698 88.2111C29.8901 88.3361 29.1948 88.4142 28.5073 88.4689C28.1557 88.4923 27.812 88.5157 27.4682 88.5314C27.2495 88.5392 26.9838 88.4845 26.7729 88.5626C26.4995 88.6564 26.8666 88.922 26.9838 89.0001C28.1389 89.7532 29.4077 90.3151 30.7416 90.6642C31.9838 90.9845 33.2885 91.1017 34.5698 90.961C35.6791 90.8439 36.7573 90.5314 37.7729 90.0704C43.4291 87.4845 42.9448 82.0704 48.1245 81.6642C51.9291 81.3673 57.3276 83.3673 57.3276 83.3673L53.9057 75.6642Z" fill="white"/>
<path id="Vector_3" d="M13.2656 28.4766C13.2656 28.4766 3.14842 30.1406 0.570292 39.1328C-2.71877 50.625 13.6172 54.4609 13.6172 54.4609L14.6406 46.6562C14.6406 46.6562 3.75779 45.5703 4.3906 41.3984C5.17185 36.2578 14.2109 36.7344 14.2109 36.7344L13.2656 28.4766Z" fill="white"/>
<path id="Vector_4" d="M14.0859 55.6641C14.0859 55.6641 12.5313 56.1328 10.2266 57.7344C8.64844 58.8359 6.55469 60.2266 4.53906 62.625C3.53125 63.8203 2.71094 65.1797 2.20313 66.6641C1.85156 67.6719 1.64844 68.7266 1.63281 69.7891C1.63281 70.0156 1.63281 70.2422 1.64062 70.4609C1.64844 70.5625 1.64844 71.1328 1.89844 70.9844C1.98438 70.9375 2.0625 70.6797 2.10938 70.5938C2.30469 70.2344 2.52344 69.8828 2.76563 69.5547C3.66419 68.2845 4.84652 67.2412 6.21875 66.5078C6.375 66.4297 6.79688 66.0781 6.91406 66.3828C6.96875 66.5313 6.83594 66.8047 6.78906 66.9531C6.71875 67.2109 6.65625 67.4609 6.59375 67.7188C6.30469 68.9453 6.09375 70.1953 6.00781 71.4531C5.96094 72.1328 5.95313 72.8281 5.99219 73.5078C6.00781 73.8516 6.04688 74.1953 6.09375 74.5391C6.11719 74.7031 6.14844 74.8672 6.17969 75.0313C6.21094 75.2031 6.375 75.3906 6.49219 75.1719C6.53906 75.0781 6.58594 74.9766 6.63281 74.875C6.75781 74.6172 6.88281 74.3594 7.01562 74.1016C7.39062 73.3672 7.79688 72.6562 8.22656 71.9531C8.78906 71.0547 9.39063 70.1797 10.0391 69.3438C10.7813 68.3906 11.5938 67.4844 12.4609 66.6563C13.3984 65.7656 14.4141 64.9609 15.5078 64.2734C16.1563 63.8594 16.8438 63.4922 17.5547 63.1875L14.0859 55.6641Z" fill="white"/>
<path id="Vector_5" d="M93.5234 62.5626C92.5625 57.9376 91.2422 53.3907 89.7422 48.9141C88.4609 45.086 87.1953 41.211 84.9141 37.8438C83.9219 36.3907 82.375 35.3751 80.5781 34.6641C76.9609 33.2423 72.3359 33.0391 69.1953 33.0079C64.5156 32.9688 59.6406 34.0235 55.2578 36.086C53.7266 40.7813 49.3594 52.6719 42.9219 57.9844C43.3203 60.211 43.8125 62.4219 44.4219 64.6016C45.4922 68.461 46.9219 72.2579 48.2344 76.0469C49.5 79.6876 51.0078 83.3829 53.6953 86.2344C54.3984 86.9844 55.2266 87.6016 56.0156 88.2579C57.8828 89.8126 60.1328 90.7813 62.4297 91.5079C64.5625 92.1876 66.7422 92.7501 68.9219 93.2423C72.8359 94.1251 78.4609 95.5626 82.2734 93.7735C84.3594 92.7969 86.0859 91.3751 87.5 89.547C88.9609 87.6563 90.1406 85.5548 91.1797 83.3985C92.75 80.1094 94.3906 76.4141 94.6406 72.7344C94.8828 69.3126 94.2188 65.8985 93.5234 62.5626ZM73.125 49.7891C76.6406 52.086 81.1641 52.6954 85.2266 52.4688C86.4297 52.4063 87.0781 52.5313 86.7656 53.8985C86.1562 56.6094 83.5703 58.2188 81.0625 58.7813C80.4297 58.9219 79.8125 58.9532 79.2109 58.9063C78.0078 58.8048 76.8437 58.3282 75.8516 57.6329C73.6875 56.1251 72.0469 53.5782 71.5625 50.9688C71.3047 49.5938 71.8125 48.9376 73.125 49.7891ZM51.0156 63.8204C50.0078 62.7735 50.5156 62.3126 51.6328 61.7266C55.3984 59.7501 59.1172 56.7891 61.0547 52.8673C61.7734 51.4141 62.5781 51.7266 63.0781 53.0704C64.0312 55.6485 63.9062 58.7891 62.7734 61.2813C62.25 62.4376 61.4688 63.4766 60.4375 64.211C59.9219 64.5782 59.3516 64.8751 58.7109 65.086C56.1719 65.9454 53.0078 65.8985 51.0156 63.8204ZM88.1875 76.8282C87.8437 76.8048 87.4062 76.5469 86.9922 76.2657C86.6094 76.0157 86.2344 75.7344 85.9531 75.5938C84.9766 75.1016 83.9609 74.6798 82.9219 74.336C79.8047 73.3048 76.3906 73.336 73.2734 74.3594C71.0703 75.086 68.9687 76.3751 67.2969 77.9766C65.4375 79.7579 64.0547 81.9766 62.25 83.8048C62.0469 84.0079 61.7969 84.2891 61.5391 84.4063C61.0703 84.6329 60.5625 84.3438 60.4453 83.8673C59.6406 80.5938 61.8594 75.9454 63.4922 73.2032C65.3437 70.1016 68.0703 67.5782 71.5859 66.5313C73.3203 66.0157 75.1719 65.9688 76.9453 66.2501C82.1719 67.0626 87.5625 71.211 88.6172 75.9141C88.6797 76.2188 88.5937 76.8594 88.1875 76.8282Z" fill="url(#paint0_linear_131_877)"/>
<path id="Vector_6" d="M61.3595 24.5936C61.1329 23.6952 60.4845 22.8905 60.0313 22.1014C54.7813 12.9608 43.3673 8.55456 33.2345 9.22644C30.1017 9.42956 25.4923 9.8905 21.9688 11.5233C20.211 12.3358 18.7267 13.4374 17.8204 14.9452C15.7267 18.4374 14.6876 22.3827 13.6251 26.2733C12.3751 30.828 11.3126 35.4452 10.6173 40.1171C10.0157 44.1796 9.45322 48.6639 10.5392 52.6952C11.3985 55.8671 13.2735 60.3592 15.3204 62.9217C17.5548 65.7186 20.7579 68.9842 24.1876 70.2733C24.8438 70.5233 25.5392 70.6874 26.2267 70.8202C27.5548 71.0858 28.961 71.2342 30.3126 71.0155C31.1251 70.8827 31.9454 70.7967 32.7345 70.5858C34.297 70.1717 35.7657 69.6639 37.2579 69.0624C43.5392 66.5546 48.6095 62.9217 51.9376 56.953C53.3829 54.3671 54.5392 51.6405 55.5782 48.8671C55.6407 48.703 55.6954 48.5467 55.7579 48.3827C57.422 43.8436 58.4767 39.1171 59.6251 34.4296C60.1876 32.1327 60.8282 29.8514 61.1329 27.4999C61.2657 26.5311 61.6017 25.5702 61.3595 24.5936ZM16.0235 30.3983C17.4376 27.8124 20.797 25.8202 23.7813 26.1483C24.2813 26.203 24.7735 26.328 25.2423 26.5155C28.1954 27.7342 29.9923 30.6405 29.297 33.6405C29.1485 34.2733 28.7267 34.3671 28.2579 33.9686C26.6407 32.5858 25.3048 31.5077 23.0938 30.9374C21.297 30.4764 19.3048 30.7108 17.5392 31.1796C17.1563 31.2811 16.5001 31.6405 16.1095 31.4686C15.6642 31.2811 15.8438 30.7186 16.0235 30.3983ZM48.5001 50.6639C47.6251 52.0155 46.4767 53.1796 45.3048 54.2577C45.0235 54.5155 44.7423 54.7655 44.4532 55.0077C39.8048 58.9139 33.461 60.8592 27.4142 59.3983C25.7657 58.9999 23.9845 58.1639 22.6485 57.1249C21.6017 56.3124 20.6095 55.3202 19.7501 54.3046C18.1798 52.4608 17.0235 50.2499 16.2657 47.9608C15.8907 46.828 15.6251 45.6639 15.4923 44.4842C15.4532 44.1092 14.9767 39.9921 16.2032 40.4999C16.4923 40.6171 16.7423 40.8593 16.9532 41.1327C17.1876 41.4217 17.3829 41.7421 17.5782 41.9921C18.1251 42.6874 18.6876 43.3827 19.2657 44.0546C21.2423 46.328 23.6485 48.1405 26.3985 49.3749C28.2657 50.2108 30.297 50.6874 32.3282 50.8827C33.4688 50.9921 34.6173 51.0155 35.7579 50.953C39.9845 50.7342 44.2735 49.4999 48.1329 47.7889C48.4532 47.6483 48.8438 47.3983 49.2032 47.4061C50.5157 47.4217 48.7423 50.2889 48.5001 50.6639ZM52.9845 39.1874C52.9532 39.5467 52.8126 40.1171 52.3751 40.0311C52.0001 39.953 51.6876 39.2889 51.4532 38.9921C50.3595 37.6092 48.2267 36.0311 46.1563 35.5233C43.6173 34.8983 41.7813 35.9686 39.2813 36.2421C38.5548 36.3202 38.2032 36.0077 38.4767 35.3983C39.797 32.5077 43.3126 30.2655 47.0157 30.8671C47.6017 30.9608 48.1642 31.1327 48.6954 31.3592C51.8517 32.7186 53.211 36.2577 52.9845 39.1874Z" fill="#00FF00"/>
</g>
<defs>
<linearGradient id="paint0_linear_131_877" x1="68.8067" y1="33.0068" x2="68.8067" y2="94.6284" gradientUnits="userSpaceOnUse">
<stop stop-color="#5BFFFF"/>
<stop offset="1" stop-color="#336BFA"/>
</linearGradient>
</defs>
</svg>
