<svg width="100" height="100" viewBox="0 0 100 100" fill="none" xmlns="http://www.w3.org/2000/svg">
<g id="ri:apps-fill">
<path id="Vector" d="M28.1244 54.1667H45.8327V71.8751C45.8327 75.3775 44.7941 78.8012 42.8483 81.7133C40.9025 84.6254 38.1368 86.8952 34.901 88.2355C31.6653 89.5758 28.1047 89.9264 24.6696 89.2432C21.2346 88.5599 18.0792 86.8733 15.6027 84.3968C13.1261 81.9202 11.4396 78.7649 10.7563 75.3298C10.073 71.8947 10.4237 68.3342 11.764 65.0984C13.1043 61.8626 15.374 59.097 18.2861 57.1511C21.1983 55.2053 24.622 54.1667 28.1244 54.1667Z" fill="#5BFFFF"/>
<path id="Vector_2" d="M54.166 54.1667H71.8744C75.3767 54.1667 78.8005 55.2053 81.7126 57.1511C84.6247 59.097 86.8944 61.8626 88.2347 65.0984C89.575 68.3342 89.9257 71.8947 89.2424 75.3298C88.5591 78.7649 86.8726 81.9202 84.396 84.3968C81.9195 86.8733 78.7642 88.5599 75.3291 89.2432C71.894 89.9264 68.3334 89.5758 65.0977 88.2355C61.8619 86.8952 59.0962 84.6254 57.1504 81.7133C55.2046 78.8012 54.166 75.3775 54.166 71.8751V54.1667Z" fill="white"/>
<path id="Vector_3" d="M28.1244 10.4165C30.4498 10.4165 32.7526 10.8745 34.901 11.7645C37.0495 12.6544 39.0017 13.9588 40.646 15.6032C42.2904 17.2475 43.5948 19.1997 44.4847 21.3482C45.3746 23.4966 45.8327 25.7993 45.8327 28.1248V45.8332H28.1244C23.4278 45.8332 18.9236 43.9675 15.6027 40.6465C12.2817 37.3256 10.416 32.8214 10.416 28.1248C10.416 23.4283 12.2817 18.9241 15.6027 15.6032C18.9236 12.2822 23.4278 10.4165 28.1244 10.4165Z" fill="white"/>
<path id="Vector_4" d="M71.8744 10.4165C76.5709 10.4165 81.0751 12.2822 84.396 15.6032C87.717 18.9241 89.5827 23.4283 89.5827 28.1248C89.5827 32.8214 87.717 37.3256 84.396 40.6465C81.0751 43.9675 76.5709 45.8332 71.8744 45.8332H54.166V28.1248C54.166 23.4283 56.0317 18.9241 59.3527 15.6032C62.6736 12.2822 67.1778 10.4165 71.8744 10.4165Z" fill="url(#paint0_linear_131_824)"/>
</g>
<defs>
<linearGradient id="paint0_linear_131_824" x1="71.8743" y1="10.4165" x2="71.8743" y2="45.8332" gradientUnits="userSpaceOnUse">
<stop stop-color="#5BFFFF"/>
<stop offset="1" stop-color="#00FF00"/>
</linearGradient>
</defs>
</svg>
