<svg width="32" height="33" viewBox="0 0 32 33" fill="none" xmlns="http://www.w3.org/2000/svg">
<g id="security-warning 2">
<path id="Vector" d="M26.134 5.30001C25.8673 5.03334 25.4673 4.90001 25.0673 5.03334C22.134 5.70001 19.2007 5.03334 16.8007 3.30001C16.4007 3.03334 15.734 3.03334 15.334 3.30001C12.8007 5.03334 9.86732 5.70001 6.93398 5.03334C6.26732 4.90001 5.46732 5.43334 5.33398 6.10001C5.33398 6.23334 5.33398 6.23334 5.33398 6.36667V16.3667C5.33398 20.2333 7.20065 23.8333 10.4007 26.1L15.334 29.5667C15.734 29.8333 16.4007 29.8333 16.934 29.5667L21.8673 26.1C25.0673 23.8333 26.934 20.2333 26.934 16.3667V6.36667C26.6673 5.96667 26.534 5.56667 26.134 5.30001ZM16.0007 22.3667C15.2007 22.3667 14.6673 21.8333 14.6673 21.0333C14.6673 20.2333 15.2007 19.7 16.0007 19.7C16.8007 19.7 17.334 20.2333 17.334 21.0333C17.334 21.8333 16.8007 22.3667 16.0007 22.3667ZM17.334 15.7C17.334 16.5 16.8007 17.0333 16.0007 17.0333C15.2007 17.0333 14.6673 16.5 14.6673 15.7V11.7C14.6673 10.9 15.2007 10.3667 16.0007 10.3667C16.8007 10.3667 17.334 10.9 17.334 11.7V15.7Z" fill="black"/>
</g>
</svg>
