<svg width="32" height="33" viewBox="0 0 32 33" fill="none" xmlns="http://www.w3.org/2000/svg">
<g id="support">
<path id="Vector" d="M24.8881 25.1406C25.685 25.1406 26.4881 24.9719 27.1444 24.4938C27.9006 23.9438 28.5069 23.1531 28.6756 22.2125C28.7944 21.5438 28.7569 20.8625 28.7569 20.1875C28.7569 18.6438 28.7662 17.0969 28.7569 15.55C28.7537 14.8188 28.5444 14.0531 28.11 13.4594C27.5631 12.7094 26.7819 12.1063 25.8506 11.9344C25.4912 11.8656 25.1225 11.8313 24.7569 11.85C24.2069 11.8781 23.7287 12.0125 23.235 12.2438C22.3725 12.6469 21.7631 13.4281 21.4225 14.2938C21.1475 14.9906 21.2006 15.7656 21.2006 16.5V21.3594C21.2006 21.9813 21.335 22.5438 21.5975 23.1031C21.9975 23.9656 22.7819 24.575 23.6475 24.9156C24.0381 25.0719 24.4694 25.1375 24.8881 25.1406C25.5412 25.1469 26.1694 24.5625 26.1381 23.8906C26.1069 23.2094 25.5881 22.6469 24.8881 22.6406C24.7725 22.6406 24.66 22.6313 24.5444 22.6156C24.6537 22.6313 24.7662 22.6469 24.8756 22.6594C24.6662 22.6281 24.4662 22.5719 24.2725 22.4906C24.3725 22.5313 24.4725 22.575 24.5725 22.6156C24.3819 22.5344 24.2069 22.4313 24.0412 22.3063L24.2944 22.5031C24.1225 22.3688 23.9694 22.2156 23.835 22.0438L24.0319 22.2969C23.9069 22.1313 23.8037 21.9563 23.7225 21.7656C23.7631 21.8656 23.8069 21.9656 23.8475 22.0656C23.7662 21.8719 23.71 21.6719 23.6787 21.4625C23.6944 21.5719 23.71 21.6844 23.7225 21.7938C23.685 21.5156 23.6975 21.2313 23.6975 20.95V16.1656C23.6975 15.8406 23.6787 15.5094 23.7225 15.1875C23.7069 15.2969 23.6912 15.4094 23.6787 15.5188C23.71 15.3094 23.7662 15.1094 23.8475 14.9156C23.8069 15.0156 23.7631 15.1156 23.7225 15.2156C23.8037 15.025 23.9069 14.85 24.0319 14.6844L23.835 14.9375C23.9694 14.7656 24.1225 14.6125 24.2944 14.4781L24.0412 14.675C24.2069 14.55 24.3819 14.4469 24.5725 14.3656C24.4725 14.4063 24.3725 14.45 24.2725 14.4906C24.4662 14.4094 24.6662 14.3531 24.8756 14.3219C24.7662 14.3375 24.6537 14.3531 24.5444 14.3656C24.8287 14.3281 25.1287 14.3281 25.4131 14.3656C25.3037 14.35 25.1912 14.3344 25.0819 14.3219C25.2912 14.3531 25.4912 14.4094 25.685 14.4906C25.585 14.45 25.485 14.4063 25.385 14.3656C25.5756 14.4469 25.7506 14.55 25.9162 14.675L25.6631 14.4781C25.835 14.6125 25.9881 14.7656 26.1225 14.9375L25.9256 14.6844C26.0506 14.85 26.1537 15.025 26.235 15.2156C26.1944 15.1156 26.1506 15.0156 26.11 14.9156C26.1912 15.1094 26.2475 15.3094 26.2787 15.5188C26.2631 15.4094 26.2475 15.2969 26.235 15.1875C26.2725 15.4656 26.26 15.75 26.26 16.0313V20.8156C26.26 21.1406 26.2787 21.4719 26.235 21.7938C26.2506 21.6844 26.2662 21.5719 26.2787 21.4625C26.2475 21.6719 26.1912 21.8719 26.11 22.0656C26.1506 21.9656 26.1944 21.8656 26.235 21.7656C26.1537 21.9563 26.0506 22.1313 25.9256 22.2969L26.1225 22.0438C25.9881 22.2156 25.835 22.3688 25.6631 22.5031L25.9162 22.3063C25.7506 22.4313 25.5756 22.5344 25.385 22.6156C25.485 22.575 25.585 22.5313 25.685 22.4906C25.4912 22.5719 25.2912 22.6281 25.0819 22.6594C25.1912 22.6438 25.3037 22.6281 25.4131 22.6156C25.2381 22.6375 25.0631 22.6406 24.8881 22.6406C24.235 22.6406 23.6069 23.2156 23.6381 23.8906C23.6694 24.5688 24.1881 25.1406 24.8881 25.1406ZM6.93186 25.1406C7.72874 25.1406 8.53186 24.9719 9.18811 24.4938C9.94436 23.9438 10.5506 23.1531 10.7194 22.2125C10.8381 21.5438 10.8006 20.8625 10.8006 20.1875C10.8006 18.6438 10.81 17.0969 10.8006 15.55C10.7975 14.8188 10.5881 14.0531 10.1537 13.4594C9.60686 12.7094 8.82561 12.1063 7.89436 11.9344C7.53499 11.8656 7.16624 11.8313 6.80061 11.85C6.25061 11.8781 5.77249 12.0125 5.27874 12.2438C4.41624 12.6469 3.80686 13.4281 3.46624 14.2938C3.19124 14.9906 3.24436 15.7656 3.24436 16.5V21.3594C3.24436 21.9813 3.37874 22.5438 3.64124 23.1031C4.04124 23.9656 4.82561 24.575 5.69124 24.9156C6.08186 25.0719 6.51311 25.1375 6.93186 25.1406C7.58499 25.1469 8.21311 24.5625 8.18186 23.8906C8.15061 23.2094 7.63186 22.6469 6.93186 22.6406C6.81624 22.6406 6.70374 22.6313 6.58811 22.6156C6.69749 22.6313 6.80999 22.6469 6.91936 22.6594C6.70999 22.6281 6.50999 22.5719 6.31624 22.4906C6.41624 22.5313 6.51624 22.575 6.61624 22.6156C6.42561 22.5344 6.25061 22.4313 6.08499 22.3063L6.33811 22.5031C6.16624 22.3688 6.01311 22.2156 5.87874 22.0438L6.07561 22.2969C5.95061 22.1313 5.84749 21.9563 5.76624 21.7656C5.80686 21.8656 5.85061 21.9656 5.89124 22.0656C5.80999 21.8719 5.75374 21.6719 5.72249 21.4625C5.73811 21.5719 5.75374 21.6844 5.76624 21.7938C5.72874 21.5156 5.74124 21.2313 5.74124 20.95V16.1656C5.74124 15.8406 5.72249 15.5094 5.76624 15.1875C5.75061 15.2969 5.73499 15.4094 5.72249 15.5188C5.75374 15.3094 5.80999 15.1094 5.89124 14.9156C5.85061 15.0156 5.80686 15.1156 5.76624 15.2156C5.84749 15.025 5.95061 14.85 6.07561 14.6844L5.87874 14.9375C6.01311 14.7656 6.16624 14.6125 6.33811 14.4781L6.08499 14.675C6.25061 14.55 6.42561 14.4469 6.61624 14.3656C6.51624 14.4063 6.41624 14.45 6.31624 14.4906C6.50999 14.4094 6.70999 14.3531 6.91936 14.3219C6.80999 14.3375 6.69749 14.3531 6.58811 14.3656C6.87249 14.3281 7.17249 14.3281 7.45686 14.3656C7.34749 14.35 7.23499 14.3344 7.12561 14.3219C7.33499 14.3531 7.53499 14.4094 7.72874 14.4906C7.62874 14.45 7.52874 14.4063 7.42874 14.3656C7.61936 14.4469 7.79436 14.55 7.95999 14.675L7.70686 14.4781C7.87874 14.6125 8.03186 14.7656 8.16623 14.9375L7.96936 14.6844C8.09436 14.85 8.19748 15.025 8.27874 15.2156C8.23811 15.1156 8.19436 15.0156 8.15374 14.9156C8.23499 15.1094 8.29123 15.3094 8.32248 15.5188C8.30686 15.4094 8.29123 15.2969 8.27874 15.1875C8.31624 15.4656 8.30374 15.75 8.30374 16.0313V20.8156C8.30374 21.1406 8.32248 21.4719 8.27874 21.7938C8.29436 21.6844 8.30999 21.5719 8.32248 21.4625C8.29123 21.6719 8.23499 21.8719 8.15374 22.0656C8.19436 21.9656 8.23811 21.8656 8.27874 21.7656C8.19748 21.9563 8.09436 22.1313 7.96936 22.2969L8.16623 22.0438C8.03186 22.2156 7.87874 22.3688 7.70686 22.5031L7.95999 22.3063C7.79436 22.4313 7.61936 22.5344 7.42874 22.6156C7.52874 22.575 7.62874 22.5313 7.72874 22.4906C7.53499 22.5719 7.33499 22.6281 7.12561 22.6594C7.23499 22.6438 7.34749 22.6281 7.45686 22.6156C7.28186 22.6375 7.10686 22.6406 6.93186 22.6406C6.27874 22.6406 5.65061 23.2156 5.68186 23.8906C5.70999 24.5688 6.23186 25.1406 6.93186 25.1406Z" fill="black"/>
<path id="Vector_2" d="M5.74414 21.3625V14.4719C5.74414 13.8281 5.75977 13.1875 5.84414 12.55C5.82852 12.6594 5.81289 12.7719 5.80039 12.8813C5.93789 11.875 6.20664 10.8906 6.60039 9.95314C6.55977 10.0531 6.51602 10.1531 6.47539 10.2531C6.86602 9.33751 7.36914 8.47501 7.97852 7.68751L7.78164 7.94064C8.38789 7.15939 9.09102 6.45626 9.87227 5.85001L9.61914 6.04689C10.4066 5.44064 11.2691 4.93439 12.1848 4.54376C12.0848 4.58439 11.9848 4.62814 11.8848 4.66876C12.8223 4.27501 13.8066 4.00626 14.8129 3.86876C14.7035 3.88439 14.591 3.90001 14.4816 3.91251C15.491 3.78126 16.5129 3.78126 17.5223 3.91251C17.4129 3.89689 17.3004 3.88126 17.191 3.86876C18.1973 4.00626 19.1816 4.27501 20.1191 4.66876C20.0191 4.62814 19.9191 4.58439 19.8191 4.54376C20.7348 4.93439 21.5973 5.43751 22.3848 6.04689L22.1316 5.85001C22.9129 6.45626 23.616 7.15939 24.2223 7.94064L24.0254 7.68751C24.6316 8.47501 25.1379 9.33751 25.5285 10.2531C25.4879 10.1531 25.4441 10.0531 25.4035 9.95314C25.7973 10.8906 26.066 11.875 26.2035 12.8813C26.1879 12.7719 26.1723 12.6594 26.1598 12.55C26.2473 13.2125 26.2598 13.875 26.2598 14.5406V22.0938C26.2598 22.6719 26.2848 23.2594 26.2098 23.8344C26.2254 23.725 26.241 23.6125 26.2535 23.5031C26.1879 23.9781 26.0629 24.4406 25.8785 24.8813C25.9191 24.7813 25.9629 24.6813 26.0035 24.5813C25.816 25.025 25.5723 25.4406 25.2754 25.825L25.4723 25.5719C25.1848 25.9406 24.8566 26.2688 24.4879 26.5563L24.741 26.3594C24.3598 26.6531 23.941 26.8969 23.4973 27.0875C23.5973 27.0469 23.6973 27.0031 23.7973 26.9625C23.3535 27.1469 22.8941 27.2719 22.4191 27.3375C22.5285 27.3219 22.641 27.3063 22.7504 27.2938C22.266 27.3563 21.7785 27.3438 21.291 27.3438H19.016C18.3629 27.3438 17.7348 27.9188 17.766 28.5938C17.7973 29.2719 18.316 29.8438 19.016 29.8438H21.3191C21.6098 29.8438 21.9004 29.85 22.191 29.8406C23.0941 29.8125 23.9348 29.6 24.7598 29.2469C26.1504 28.65 27.3566 27.5031 28.0254 26.1469C28.4254 25.3344 28.6535 24.5031 28.7379 23.6C28.7598 23.3688 28.7598 23.1375 28.7598 22.9031V18.0563C28.7598 16.7281 28.7629 15.4 28.7598 14.0719C28.7566 12.625 28.516 11.1531 28.016 9.79376C27.4785 8.33126 26.7098 7.01251 25.7098 5.81876C23.8441 3.59376 21.1379 2.01251 18.2785 1.52189C16.6879 1.24689 15.1004 1.25626 13.516 1.55939C12.0754 1.83439 10.6629 2.39376 9.40977 3.15626C6.84414 4.72189 4.90039 7.15626 3.91914 9.99064C3.46602 11.2969 3.24727 12.7 3.24414 14.0813V21.3625C3.24414 22.0156 3.81914 22.6438 4.49414 22.6125C5.16914 22.5813 5.74414 22.0625 5.74414 21.3625Z" fill="black"/>
<path id="Vector_3" d="M17.7664 28.5906C17.7664 28.6781 17.7602 28.7656 17.7477 28.85C17.7633 28.7406 17.7789 28.6281 17.7914 28.5188C17.7664 28.6719 17.7258 28.8219 17.6695 28.9656C17.7102 28.8656 17.7539 28.7656 17.7945 28.6656C17.7289 28.8188 17.6445 28.9594 17.5445 29.0938L17.7414 28.8406C17.6477 28.9594 17.5414 29.0656 17.4227 29.1594L17.6758 28.9625C17.5445 29.0625 17.4008 29.1469 17.2477 29.2125C17.3477 29.1719 17.4477 29.1281 17.5477 29.0875C17.4039 29.1469 17.2539 29.1875 17.1008 29.2094C17.2102 29.1938 17.3227 29.1781 17.432 29.1656C17.0227 29.2188 16.5945 29.1844 16.182 29.1844C15.7633 29.1844 15.3289 29.2188 14.9133 29.1688C15.0227 29.1844 15.1352 29.2 15.2445 29.2125C15.082 29.1875 14.9289 29.1469 14.7758 29.0844C14.8758 29.125 14.9758 29.1688 15.0758 29.2094C14.9289 29.1438 14.7945 29.0656 14.6664 28.9688L14.9195 29.1656C14.7945 29.0656 14.6852 28.9563 14.5852 28.8313L14.782 29.0844C14.6852 28.9563 14.607 28.8219 14.5414 28.675C14.582 28.775 14.6258 28.875 14.6664 28.975C14.6039 28.825 14.5633 28.6688 14.5383 28.5063C14.5539 28.6156 14.5695 28.7281 14.582 28.8375C14.5602 28.6656 14.5602 28.4969 14.582 28.3281C14.5664 28.4375 14.5508 28.55 14.5383 28.6594C14.5633 28.5063 14.6039 28.3563 14.6602 28.2125C14.6195 28.3125 14.5758 28.4125 14.5352 28.5125C14.6008 28.3594 14.6852 28.2188 14.7852 28.0844L14.5883 28.3375C14.682 28.2188 14.7883 28.1125 14.907 28.0188L14.6539 28.2156C14.7852 28.1156 14.9289 28.0313 15.082 27.9656C14.982 28.0063 14.882 28.05 14.782 28.0906C14.9258 28.0313 15.0758 27.9906 15.2289 27.9688C15.1195 27.9844 15.007 28 14.8977 28.0125C15.307 27.9594 15.7352 27.9938 16.1477 27.9938C16.5664 27.9938 17.0008 27.9594 17.4164 28.0094C17.307 27.9938 17.1945 27.9781 17.0852 27.9656C17.2477 27.9906 17.4008 28.0313 17.5539 28.0938C17.4539 28.0531 17.3539 28.0094 17.2539 27.9688C17.4008 28.0344 17.5352 28.1125 17.6633 28.2094L17.4102 28.0125C17.5352 28.1125 17.6445 28.2219 17.7445 28.3469L17.5477 28.0938C17.6445 28.2219 17.7227 28.3563 17.7883 28.5031C17.7477 28.4031 17.7039 28.3031 17.6633 28.2031C17.7258 28.3531 17.7664 28.5094 17.7914 28.6719C17.7758 28.5625 17.7602 28.45 17.7477 28.3406C17.7602 28.425 17.7633 28.5063 17.7664 28.5906C17.7695 28.9125 17.9039 29.2438 18.132 29.475C18.3477 29.6906 18.7039 29.8563 19.0164 29.8406C19.6852 29.8094 20.2758 29.2906 20.2664 28.5906C20.2602 28.0219 20.107 27.4281 19.7914 26.9469C19.4945 26.4969 19.0914 26.0875 18.6039 25.8469C18.1445 25.6219 17.6758 25.4969 17.157 25.4906H15.157C14.632 25.4969 14.132 25.6281 13.6664 25.875C13.2164 26.1125 12.8664 26.4781 12.5727 26.8875C12.2695 27.3125 12.1414 27.8156 12.0758 28.3281C12.007 28.8969 12.1508 29.4688 12.3945 29.9813C12.6289 30.4813 13.0258 30.875 13.4758 31.1875C14.0445 31.5813 14.7258 31.6875 15.4008 31.6875H17.1633C17.6914 31.6813 18.1914 31.55 18.657 31.3031C19.6477 30.7781 20.2539 29.6938 20.2664 28.5875C20.2727 27.9344 19.6852 27.3063 19.0164 27.3375C18.332 27.3719 17.7727 27.8906 17.7664 28.5906Z" fill="black"/>
</g>
</svg>
